<svg enable-background="new 0 0 800 800" viewBox="0 0 800 800" xmlns="http://www.w3.org/2000/svg" xmlns:xlink="http://www.w3.org/1999/xlink"><linearGradient id="a" gradientUnits="userSpaceOnUse" x1="222.7765" x2="577.2235" y1="843.8897" y2="489.4427"><stop offset=".15" stop-color="#e84281"/><stop offset=".75" stop-color="#faba00"/></linearGradient><path d="m400 425.2c-18.6 0-35.6-8.5-46.8-23.4l-75-100c-15.5-20.7-15.5-49.5 0-70.2l75-100c11.2-14.9 28.2-23.4 46.8-23.4s35.6 8.5 46.8 23.4l75 100c15.5 20.7 15.5 49.5 0 70.2l-75 100c-11.2 14.8-28.2 23.4-46.8 23.4zm-51.9-158.5 51.9 69.2 51.9-69.2-51.9-69.2z" fill="#403d82"/><path d="m700 705.2h-600c-21.3 0-38.5-17.2-38.5-38.5s17.2-38.5 38.5-38.5h600c21.3 0 38.5 17.2 38.5 38.5s-17.2 38.5-38.5 38.5zm-300-100c-21.3 0-38.5-17.2-38.5-38.5v-66.7c0-21.3 17.2-38.5 38.5-38.5s38.5 17.2 38.5 38.5v66.7c0 21.2-17.2 38.5-38.5 38.5z" fill="url(#a)"/></svg>